<?xml version="1.0" encoding="utf-8"?>
<!-- Generator: Adobe Illustrator 16.0.0, SVG Export Plug-In . SVG Version: 6.00 Build 0)  -->
<!DOCTYPE svg PUBLIC "-//W3C//DTD SVG 1.1//EN" "http://www.w3.org/Graphics/SVG/1.1/DTD/svg11.dtd">
<svg version="1.1" id="Layer_1" xmlns="http://www.w3.org/2000/svg" xmlns:xlink="http://www.w3.org/1999/xlink" x="0px" y="0px"
	 width="204.173px" height="57.111px" viewBox="0 0 204.173 57.111" enable-background="new 0 0 204.173 57.111"
	 xml:space="preserve">
<g>
	<path fill="#282828" d="M6.756,1.995h18.23c1.598,0,2.96,0.489,4.09,1.465c1.13,0.979,1.696,2.17,1.696,3.57v21.049h-5.497V19.31
		H6.467v8.769H1.01V7.03c0-1.4,0.559-2.591,1.672-3.57C3.799,2.484,5.158,1.995,6.756,1.995 M6.467,14.528h18.808V7.03
		c0-0.17-0.098-0.253-0.289-0.253H6.756c-0.195,0-0.289,0.083-0.289,0.253V14.528z"/>
	<path fill="#282828" d="M71.819,7.065v7.03c0,1.376-0.566,2.559-1.696,3.549c-1.13,0.991-2.493,1.486-4.091,1.486h-1.611
		l7.398,7.716v1.232h-5.952l-8.598-8.948h-9.631h-0.124v8.948h-5.457V2.03h23.975c1.598,0,2.961,0.495,4.091,1.486
		C71.253,4.506,71.819,5.689,71.819,7.065 M47.803,14.348h18.229c0.192,0,0.29-0.085,0.29-0.253v-7.03
		c0-0.168-0.098-0.253-0.29-0.253H47.803c-0.195,0-0.289,0.085-0.289,0.253v7.03C47.514,14.263,47.608,14.348,47.803,14.348"/>
	<path fill="#282828" d="M112.493,6.777H88.558c-0.191,0-0.289,0.083-0.289,0.253v16.013c0,0.168,0.098,0.254,0.289,0.254h23.935
		v4.782H88.558c-1.598,0-2.953-0.49-4.07-1.469c-1.117-0.976-1.676-2.166-1.676-3.567V7.03c0-1.4,0.559-2.591,1.676-3.57
		c1.117-0.976,2.472-1.465,4.07-1.465h23.935V6.777z"/>
	<polygon fill="#282828" points="198.426,21.124 198.426,1.995 203.922,1.995 203.922,28.079 197.971,28.079 179.618,8.95 
		179.618,28.079 174.161,28.079 174.161,1.995 180.115,1.995 	"/>
	<path fill="#434343" d="M5.939,41.801c-0.092,0.689-0.382,1.222-0.871,1.597C4.58,43.771,3.93,43.959,3.12,43.959
		c-0.879,0-1.583-0.277-2.112-0.828c-0.529-0.552-0.795-1.291-0.795-2.216v-0.627c0-0.605,0.124-1.139,0.371-1.598
		c0.247-0.461,0.596-0.813,1.049-1.059c0.453-0.247,0.977-0.37,1.574-0.37c0.79,0,1.423,0.193,1.899,0.58
		c0.477,0.386,0.755,0.921,0.833,1.605H4.953c-0.085-0.521-0.27-0.898-0.554-1.132s-0.682-0.351-1.192-0.351
		c-0.627,0-1.118,0.203-1.474,0.609c-0.356,0.407-0.534,0.983-0.534,1.733v0.633c0,0.707,0.169,1.271,0.506,1.688
		c0.337,0.418,0.808,0.627,1.415,0.627c0.545,0,0.963-0.108,1.253-0.324c0.292-0.217,0.484-0.593,0.58-1.131H5.939z"/>
	<path fill="none" stroke="#434343" stroke-width="0.426" stroke-miterlimit="10" d="M5.939,41.801
		c-0.092,0.689-0.382,1.222-0.871,1.597C4.58,43.771,3.93,43.959,3.12,43.959c-0.879,0-1.583-0.277-2.112-0.828
		c-0.529-0.552-0.795-1.291-0.795-2.216v-0.627c0-0.605,0.124-1.139,0.371-1.598c0.247-0.461,0.596-0.813,1.049-1.059
		c0.453-0.247,0.977-0.37,1.574-0.37c0.79,0,1.423,0.193,1.899,0.58c0.477,0.386,0.755,0.921,0.833,1.605H4.953
		c-0.085-0.521-0.27-0.898-0.554-1.132s-0.682-0.351-1.192-0.351c-0.627,0-1.118,0.203-1.474,0.609
		c-0.356,0.407-0.534,0.983-0.534,1.733v0.633c0,0.707,0.169,1.271,0.506,1.688c0.337,0.418,0.808,0.627,1.415,0.627
		c0.545,0,0.963-0.108,1.253-0.324c0.292-0.217,0.484-0.593,0.58-1.131H5.939z"/>
	<path fill="#434343" d="M19.389,40.821c0,0.639-0.123,1.195-0.368,1.672c-0.246,0.476-0.593,0.839-1.042,1.09
		c-0.45,0.25-0.974,0.376-1.573,0.376c-0.586,0-1.105-0.126-1.558-0.379c-0.453-0.252-0.804-0.611-1.055-1.078
		c-0.25-0.468-0.379-1.009-0.385-1.623v-0.47c0-0.627,0.124-1.18,0.373-1.661c0.248-0.479,0.6-0.849,1.054-1.103
		c0.455-0.256,0.974-0.384,1.56-0.384c0.597,0,1.122,0.126,1.576,0.38c0.455,0.252,0.804,0.616,1.05,1.096
		c0.245,0.479,0.368,1.037,0.368,1.672V40.821z M18.413,40.399c0-0.772-0.177-1.365-0.531-1.779
		c-0.354-0.413-0.849-0.619-1.487-0.619c-0.619,0-1.107,0.206-1.462,0.619c-0.356,0.414-0.54,0.988-0.55,1.722v0.479
		c0,0.748,0.18,1.338,0.539,1.766c0.359,0.428,0.854,0.643,1.484,0.643c0.633,0,1.123-0.202,1.471-0.607
		c0.347-0.404,0.526-0.983,0.536-1.739V40.399z"/>
	<path fill="none" stroke="#434343" stroke-width="0.426" stroke-miterlimit="10" d="M19.389,40.821
		c0,0.639-0.123,1.195-0.368,1.672c-0.246,0.476-0.593,0.839-1.042,1.09c-0.45,0.25-0.974,0.376-1.573,0.376
		c-0.586,0-1.105-0.126-1.558-0.379c-0.453-0.252-0.804-0.611-1.055-1.078c-0.25-0.468-0.379-1.009-0.385-1.623v-0.47
		c0-0.627,0.124-1.18,0.373-1.661c0.248-0.479,0.6-0.849,1.054-1.103c0.455-0.256,0.974-0.384,1.56-0.384
		c0.597,0,1.122,0.126,1.576,0.38c0.455,0.252,0.804,0.616,1.05,1.096c0.245,0.479,0.368,1.037,0.368,1.672V40.821z M18.413,40.399
		c0-0.772-0.177-1.365-0.531-1.779c-0.354-0.413-0.849-0.619-1.487-0.619c-0.619,0-1.107,0.206-1.462,0.619
		c-0.356,0.414-0.54,0.988-0.55,1.722v0.479c0,0.748,0.18,1.338,0.539,1.766c0.359,0.428,0.854,0.643,1.484,0.643
		c0.633,0,1.123-0.202,1.471-0.607c0.347-0.404,0.526-0.983,0.536-1.739V40.399z"/>
	<polygon fill="#434343" points="32.966,43.869 31.98,43.869 28.237,38.847 28.237,43.869 27.251,43.869 27.251,37.352 
		28.237,37.352 31.99,42.396 31.99,37.352 32.966,37.352 	"/>
	<polygon fill="none" stroke="#434343" stroke-width="0.426" stroke-miterlimit="10" points="32.966,43.869 31.98,43.869 
		28.237,38.847 28.237,43.869 27.251,43.869 27.251,37.352 28.237,37.352 31.99,42.396 31.99,37.352 32.966,37.352 	"/>
	<polygon fill="#434343" points="46.088,38.054 43.698,38.054 43.698,43.869 42.722,43.869 42.722,38.054 40.337,38.054 
		40.337,37.352 46.088,37.352 	"/>
	<polygon fill="none" stroke="#434343" stroke-width="0.426" stroke-miterlimit="10" points="46.088,38.054 43.698,38.054 
		43.698,43.869 42.722,43.869 42.722,38.054 40.337,38.054 40.337,37.352 46.088,37.352 	"/>
	<path fill="#434343" d="M57.284,42.164h-3.115l-0.7,1.705h-1.011l2.84-6.517h0.857l2.846,6.517h-1.007L57.284,42.164z
		 M54.465,41.461h2.528l-1.266-3.048L54.465,41.461z"/>
	<path fill="none" stroke="#434343" stroke-width="0.426" stroke-miterlimit="10" d="M57.284,42.164h-3.115l-0.7,1.705h-1.011
		l2.84-6.517h0.857l2.846,6.517h-1.007L57.284,42.164z M54.465,41.461h2.528l-1.266-3.048L54.465,41.461z"/>
	<rect x="66.464" y="37.351" fill="#434343" width="0.981" height="6.519"/>
	
		<rect x="66.464" y="37.351" fill="none" stroke="#434343" stroke-width="0.426" stroke-miterlimit="10" width="0.981" height="6.519"/>
	<polygon fill="#434343" points="81.344,43.869 80.358,43.869 76.615,38.847 76.615,43.869 75.629,43.869 75.629,37.352 
		76.615,37.352 80.368,42.396 80.368,37.352 81.344,37.352 	"/>
	<polygon fill="none" stroke="#434343" stroke-width="0.426" stroke-miterlimit="10" points="81.344,43.869 80.358,43.869 
		76.615,38.847 76.615,43.869 75.629,43.869 75.629,37.352 76.615,37.352 80.368,42.396 80.368,37.352 81.344,37.352 	"/>
	<polygon fill="#434343" points="93.68,40.856 90.457,40.856 90.457,43.167 94.201,43.167 94.201,43.87 89.477,43.87 89.477,37.352 
		94.15,37.352 94.15,38.055 90.457,38.055 90.457,40.153 93.68,40.153 	"/>
	<polygon fill="none" stroke="#434343" stroke-width="0.426" stroke-miterlimit="10" points="93.68,40.856 90.457,40.856 
		90.457,43.167 94.201,43.167 94.201,43.87 89.477,43.87 89.477,37.352 94.15,37.352 94.15,38.055 90.457,38.055 90.457,40.153 
		93.68,40.153 	"/>
	<path fill="#434343" d="M104.54,41.233h-1.746v2.636h-0.986v-6.518h2.462c0.837,0,1.481,0.167,1.933,0.501
		c0.451,0.336,0.678,0.821,0.678,1.459c0,0.406-0.125,0.761-0.377,1.062c-0.25,0.302-0.598,0.526-1.043,0.676l1.746,2.767v0.054
		h-1.053L104.54,41.233z M102.793,40.53h1.506c0.486,0,0.873-0.111,1.162-0.332c0.287-0.222,0.432-0.518,0.432-0.889
		c0-0.403-0.137-0.713-0.412-0.928c-0.273-0.216-0.669-0.324-1.188-0.328h-1.5V40.53z"/>
	<path fill="none" stroke="#434343" stroke-width="0.426" stroke-miterlimit="10" d="M104.54,41.233h-1.746v2.636h-0.986v-6.518
		h2.462c0.837,0,1.481,0.167,1.933,0.501c0.451,0.336,0.678,0.821,0.678,1.459c0,0.406-0.125,0.761-0.377,1.062
		c-0.25,0.302-0.598,0.526-1.043,0.676l1.746,2.767v0.054h-1.053L104.54,41.233z M102.793,40.53h1.506
		c0.486,0,0.873-0.111,1.162-0.332c0.287-0.222,0.432-0.518,0.432-0.889c0-0.403-0.137-0.713-0.412-0.928
		c-0.273-0.216-0.669-0.324-1.188-0.328h-1.5V40.53z"/>
	<polygon fill="#434343" points="128.558,38.054 126.168,38.054 126.168,43.869 125.192,43.869 125.192,38.054 122.807,38.054 
		122.807,37.352 128.558,37.352 	"/>
	<polygon fill="none" stroke="#434343" stroke-width="0.426" stroke-miterlimit="10" points="128.558,38.054 126.168,38.054 
		126.168,43.869 125.192,43.869 125.192,38.054 122.807,38.054 122.807,37.352 128.558,37.352 	"/>
	<path fill="#434343" d="M138.78,41.233h-1.747v2.636h-0.985v-6.518h2.461c0.838,0,1.482,0.167,1.934,0.501
		c0.451,0.336,0.677,0.821,0.677,1.459c0,0.406-0.125,0.761-0.376,1.062c-0.25,0.302-0.598,0.526-1.044,0.676l1.747,2.767v0.054
		h-1.053L138.78,41.233z M137.033,40.53h1.506c0.487,0,0.875-0.111,1.162-0.332c0.289-0.222,0.433-0.518,0.433-0.889
		c0-0.403-0.138-0.713-0.412-0.928c-0.273-0.216-0.67-0.324-1.188-0.328h-1.501V40.53z"/>
	<path fill="none" stroke="#434343" stroke-width="0.426" stroke-miterlimit="10" d="M138.78,41.233h-1.747v2.636h-0.985v-6.518
		h2.461c0.838,0,1.482,0.167,1.934,0.501c0.451,0.336,0.677,0.821,0.677,1.459c0,0.406-0.125,0.761-0.376,1.062
		c-0.25,0.302-0.598,0.526-1.044,0.676l1.747,2.767v0.054h-1.053L138.78,41.233z M137.033,40.53h1.506
		c0.487,0,0.875-0.111,1.162-0.332c0.289-0.222,0.433-0.518,0.433-0.889c0-0.403-0.138-0.713-0.412-0.928
		c-0.273-0.216-0.67-0.324-1.188-0.328h-1.501V40.53z"/>
	<path fill="#434343" d="M152.99,42.164h-3.114l-0.701,1.705h-1.01l2.84-6.517h0.856l2.845,6.517H153.7L152.99,42.164z
		 M150.17,41.461h2.528l-1.266-3.048L150.17,41.461z"/>
	<path fill="none" stroke="#434343" stroke-width="0.426" stroke-miterlimit="10" d="M152.99,42.164h-3.114l-0.701,1.705h-1.01
		l2.84-6.517h0.856l2.845,6.517H153.7L152.99,42.164z M150.17,41.461h2.528l-1.266-3.048L150.17,41.461z"/>
	<path fill="#434343" d="M162.098,43.869v-6.518h2.1c0.646,0,1.219,0.126,1.715,0.376c0.498,0.251,0.882,0.607,1.152,1.07
		s0.408,0.993,0.41,1.594v0.416c0,0.615-0.135,1.154-0.404,1.615c-0.271,0.463-0.658,0.818-1.16,1.066
		c-0.502,0.247-1.087,0.374-1.754,0.38H162.098z M163.079,38.054v5.112h1.032c0.756,0,1.344-0.206,1.765-0.618
		c0.42-0.412,0.63-0.998,0.63-1.761v-0.381c0-0.74-0.198-1.315-0.595-1.728c-0.396-0.41-0.959-0.618-1.688-0.625H163.079z"/>
	<path fill="none" stroke="#434343" stroke-width="0.426" stroke-miterlimit="10" d="M162.098,43.869v-6.518h2.1
		c0.646,0,1.219,0.126,1.715,0.376c0.498,0.251,0.882,0.607,1.152,1.07s0.408,0.993,0.41,1.594v0.416
		c0,0.615-0.135,1.154-0.404,1.615c-0.271,0.463-0.658,0.818-1.16,1.066c-0.502,0.247-1.087,0.374-1.754,0.38H162.098z
		 M163.079,38.054v5.112h1.032c0.756,0,1.344-0.206,1.765-0.618c0.42-0.412,0.63-0.998,0.63-1.761v-0.381
		c0-0.74-0.198-1.315-0.595-1.728c-0.396-0.41-0.959-0.618-1.688-0.625H163.079z"/>
	<rect x="175.418" y="37.351" fill="#434343" width="0.981" height="6.519"/>
	
		<rect x="175.418" y="37.351" fill="none" stroke="#434343" stroke-width="0.426" stroke-miterlimit="10" width="0.981" height="6.519"/>
	<polygon fill="#434343" points="190.299,43.869 189.313,43.869 185.57,38.847 185.57,43.869 184.584,43.869 184.584,37.352 
		185.57,37.352 189.323,42.396 189.323,37.352 190.299,37.352 	"/>
	<polygon fill="none" stroke="#434343" stroke-width="0.426" stroke-miterlimit="10" points="190.299,43.869 189.313,43.869 
		185.57,38.847 185.57,43.869 184.584,43.869 184.584,37.352 185.57,37.352 189.323,42.396 189.323,37.352 190.299,37.352 	"/>
	<path fill="#434343" d="M203.922,43.015c-0.252,0.315-0.604,0.553-1.055,0.709s-0.977,0.234-1.575,0.234
		c-0.607,0-1.144-0.124-1.614-0.373c-0.47-0.249-0.834-0.604-1.091-1.063c-0.257-0.459-0.39-0.992-0.396-1.597v-0.569
		c0-0.982,0.262-1.742,0.783-2.283c0.523-0.54,1.258-0.81,2.204-0.81c0.777,0,1.401,0.174,1.875,0.521s0.763,0.84,0.868,1.479h-0.98
		c-0.185-0.865-0.77-1.297-1.758-1.297c-0.656,0-1.154,0.201-1.494,0.606c-0.338,0.404-0.509,0.991-0.513,1.758v0.533
		c0,0.731,0.19,1.313,0.572,1.746c0.382,0.431,0.897,0.647,1.548,0.647c0.368,0,0.689-0.037,0.965-0.108
		c0.276-0.071,0.504-0.192,0.684-0.361v-1.46h-1.721v-0.704h2.697V43.015z"/>
	<path fill="none" stroke="#434343" stroke-width="0.426" stroke-miterlimit="10" d="M203.922,43.015
		c-0.252,0.315-0.604,0.553-1.055,0.709s-0.977,0.234-1.575,0.234c-0.607,0-1.144-0.124-1.614-0.373
		c-0.47-0.249-0.834-0.604-1.091-1.063c-0.257-0.459-0.39-0.992-0.396-1.597v-0.569c0-0.982,0.262-1.742,0.783-2.283
		c0.523-0.54,1.258-0.81,2.204-0.81c0.777,0,1.401,0.174,1.875,0.521s0.763,0.84,0.868,1.479h-0.98
		c-0.185-0.865-0.77-1.297-1.758-1.297c-0.656,0-1.154,0.201-1.494,0.606c-0.338,0.404-0.509,0.991-0.513,1.758v0.533
		c0,0.731,0.19,1.313,0.572,1.746c0.382,0.431,0.897,0.647,1.548,0.647c0.368,0,0.689-0.037,0.965-0.108
		c0.276-0.071,0.504-0.192,0.684-0.361v-1.46h-1.721v-0.704h2.697V43.015z"/>
	<polygon fill="#F05F25" points="142.787,0 164.266,4.559 164.266,27.813 142.787,31.137 	"/>
	<polygon fill="#E54325" points="121.307,4.558 121.307,27.814 142.787,31.136 142.787,0 	"/>
	<path fill="#F05F25" d="M126.173,27.367V3.703c-0.026,0.006-0.054,0.006-0.079,0.012c-0.65,0.156-1.252,0.313-1.845,0.459v23.133
		C124.893,27.3,125.534,27.316,126.173,27.367"/>
	<path fill="#F05F25" d="M130.73,28.117V3.066c-0.642,0.072-1.284,0.148-1.923,0.218v24.429
		C129.452,27.832,130.094,27.96,130.73,28.117"/>
	<path fill="#F05F25" d="M135.287,29.046V2.422c-0.64,0.104-1.278,0.208-1.923,0.3v26.073
		C134.003,28.929,134.645,29.005,135.287,29.046"/>
	<path fill="#F05F25" d="M139.843,29.483V1.36c-0.634,0.204-1.274,0.389-1.923,0.54v27.284
		C138.563,29.233,139.206,29.326,139.843,29.483"/>
	<path fill="#434343" d="M76.759,55.357c0-0.328-0.116-0.589-0.346-0.78c-0.231-0.191-0.654-0.373-1.268-0.547
		c-0.613-0.173-1.062-0.359-1.345-0.563c-0.401-0.288-0.603-0.667-0.603-1.134c0-0.454,0.187-0.823,0.561-1.106
		c0.372-0.283,0.851-0.426,1.432-0.426c0.393,0,0.746,0.075,1.058,0.228c0.311,0.153,0.552,0.365,0.723,0.637
		c0.171,0.271,0.257,0.574,0.257,0.908h-0.506c0-0.404-0.138-0.731-0.415-0.978c-0.277-0.247-0.651-0.371-1.117-0.371
		c-0.454,0-0.815,0.103-1.084,0.303c-0.269,0.205-0.404,0.47-0.404,0.795c0,0.302,0.12,0.55,0.363,0.738
		c0.243,0.192,0.63,0.358,1.162,0.505c0.532,0.145,0.935,0.296,1.21,0.453c0.275,0.157,0.481,0.342,0.62,0.561
		c0.138,0.218,0.207,0.475,0.207,0.771c0,0.466-0.187,0.841-0.56,1.125c-0.373,0.283-0.866,0.424-1.477,0.424
		c-0.418,0-0.803-0.076-1.152-0.225c-0.348-0.149-0.613-0.358-0.795-0.628c-0.181-0.27-0.271-0.576-0.271-0.924h0.502
		c0,0.416,0.157,0.746,0.469,0.989c0.311,0.243,0.727,0.363,1.247,0.363c0.462,0,0.833-0.103,1.113-0.306
		C76.618,55.965,76.759,55.693,76.759,55.357"/>
	<path fill="none" stroke="#434343" stroke-width="0.426" stroke-miterlimit="10" d="M76.759,55.357c0-0.328-0.116-0.589-0.346-0.78
		c-0.231-0.191-0.654-0.373-1.268-0.547c-0.613-0.173-1.062-0.359-1.345-0.563c-0.401-0.288-0.603-0.667-0.603-1.134
		c0-0.454,0.187-0.823,0.561-1.106c0.372-0.283,0.851-0.426,1.432-0.426c0.393,0,0.746,0.075,1.058,0.228
		c0.311,0.153,0.552,0.365,0.723,0.637c0.171,0.271,0.257,0.574,0.257,0.908h-0.506c0-0.404-0.138-0.731-0.415-0.978
		c-0.277-0.247-0.651-0.371-1.117-0.371c-0.454,0-0.815,0.103-1.084,0.303c-0.269,0.205-0.404,0.47-0.404,0.795
		c0,0.302,0.12,0.55,0.363,0.738c0.243,0.192,0.63,0.358,1.162,0.505c0.532,0.145,0.935,0.296,1.21,0.453
		c0.275,0.157,0.481,0.342,0.62,0.561c0.138,0.218,0.207,0.475,0.207,0.771c0,0.466-0.187,0.841-0.56,1.125
		c-0.373,0.283-0.866,0.424-1.477,0.424c-0.418,0-0.803-0.076-1.152-0.225c-0.348-0.149-0.613-0.358-0.795-0.628
		c-0.181-0.27-0.271-0.576-0.271-0.924h0.502c0,0.416,0.157,0.746,0.469,0.989c0.311,0.243,0.727,0.363,1.247,0.363
		c0.462,0,0.833-0.103,1.113-0.306C76.618,55.965,76.759,55.693,76.759,55.357z"/>
	<path fill="#434343" d="M79.014,56.816v-5.935h1.752c0.636,0,1.119,0.131,1.447,0.394c0.328,0.263,0.493,0.649,0.493,1.16
		c0,0.307-0.083,0.574-0.25,0.803c-0.168,0.226-0.396,0.39-0.687,0.487c0.344,0.074,0.623,0.244,0.833,0.509
		c0.21,0.263,0.316,0.565,0.316,0.911c0,0.525-0.169,0.935-0.507,1.229c-0.338,0.295-0.809,0.442-1.413,0.442H79.014z
		 M79.515,53.544h1.37c0.417-0.009,0.741-0.106,0.971-0.296c0.231-0.189,0.345-0.465,0.345-0.827c0-0.382-0.118-0.662-0.357-0.844
		c-0.238-0.182-0.597-0.271-1.078-0.271h-1.251V53.544z M79.515,53.968v2.425h1.504c0.43,0,0.77-0.11,1.021-0.328
		c0.25-0.218,0.377-0.522,0.377-0.909c0-0.367-0.12-0.656-0.361-0.868c-0.24-0.214-0.572-0.319-0.996-0.319H79.515z"/>
	<path fill="none" stroke="#434343" stroke-width="0.426" stroke-miterlimit="10" d="M79.014,56.816v-5.935h1.752
		c0.636,0,1.119,0.131,1.447,0.394c0.328,0.263,0.493,0.649,0.493,1.16c0,0.307-0.083,0.574-0.25,0.803
		c-0.168,0.226-0.396,0.39-0.687,0.487c0.344,0.074,0.623,0.244,0.833,0.509c0.21,0.263,0.316,0.565,0.316,0.911
		c0,0.525-0.169,0.935-0.507,1.229c-0.338,0.295-0.809,0.442-1.413,0.442H79.014z M79.515,53.544h1.37
		c0.417-0.009,0.741-0.106,0.971-0.296c0.231-0.189,0.345-0.465,0.345-0.827c0-0.382-0.118-0.662-0.357-0.844
		c-0.238-0.182-0.597-0.271-1.078-0.271h-1.251V53.544z M79.515,53.968v2.425h1.504c0.43,0,0.77-0.11,1.021-0.328
		c0.25-0.218,0.377-0.522,0.377-0.909c0-0.367-0.12-0.656-0.361-0.868c-0.24-0.214-0.572-0.319-0.996-0.319H79.515z"/>
	<path fill="#434343" d="M88.883,50.882v4.052c-0.002,0.399-0.092,0.747-0.265,1.044c-0.173,0.295-0.42,0.523-0.735,0.683
		c-0.316,0.159-0.681,0.237-1.091,0.237c-0.625,0-1.125-0.17-1.502-0.512c-0.377-0.34-0.571-0.813-0.585-1.416v-4.088h0.498v4.016
		c0,0.498,0.142,0.888,0.428,1.164c0.285,0.274,0.672,0.412,1.161,0.412c0.489,0,0.877-0.138,1.16-0.416
		c0.283-0.276,0.426-0.662,0.426-1.156v-4.02H88.883z"/>
	<path fill="none" stroke="#434343" stroke-width="0.426" stroke-miterlimit="10" d="M88.883,50.882v4.052
		c-0.002,0.399-0.092,0.747-0.265,1.044c-0.173,0.295-0.42,0.523-0.735,0.683c-0.316,0.159-0.681,0.237-1.091,0.237
		c-0.625,0-1.125-0.17-1.502-0.512c-0.377-0.34-0.571-0.813-0.585-1.416v-4.088h0.498v4.016c0,0.498,0.142,0.888,0.428,1.164
		c0.285,0.274,0.672,0.412,1.161,0.412c0.489,0,0.877-0.138,1.16-0.416c0.283-0.276,0.426-0.662,0.426-1.156v-4.02H88.883z"/>
	<path fill="#434343" d="M93.265,54.547c0-0.425,0.081-0.806,0.246-1.146c0.165-0.341,0.398-0.604,0.698-0.794
		c0.299-0.188,0.639-0.282,1.021-0.282c0.587,0,1.061,0.205,1.426,0.617c0.365,0.411,0.546,0.959,0.546,1.637v0.102
		c0,0.426-0.081,0.811-0.246,1.151c-0.166,0.341-0.396,0.603-0.696,0.789c-0.299,0.185-0.639,0.276-1.023,0.276
		c-0.585,0-1.059-0.205-1.424-0.617c-0.365-0.411-0.548-0.957-0.548-1.637V54.547z M93.753,54.681c0,0.528,0.136,0.96,0.41,1.298
		c0.273,0.339,0.632,0.509,1.073,0.509s0.797-0.17,1.07-0.509c0.274-0.338,0.41-0.784,0.41-1.339v-0.093
		c0-0.337-0.063-0.646-0.188-0.926c-0.124-0.279-0.299-0.497-0.525-0.65c-0.227-0.153-0.483-0.229-0.774-0.229
		c-0.434,0-0.789,0.171-1.064,0.511c-0.276,0.341-0.412,0.787-0.412,1.339V54.681z"/>
	<path fill="none" stroke="#434343" stroke-width="0.426" stroke-miterlimit="10" d="M93.265,54.547
		c0-0.425,0.081-0.806,0.246-1.146c0.165-0.341,0.398-0.604,0.698-0.794c0.299-0.188,0.639-0.282,1.021-0.282
		c0.587,0,1.061,0.205,1.426,0.617c0.365,0.411,0.546,0.959,0.546,1.637v0.102c0,0.426-0.081,0.811-0.246,1.151
		c-0.166,0.341-0.396,0.603-0.696,0.789c-0.299,0.185-0.639,0.276-1.023,0.276c-0.585,0-1.059-0.205-1.424-0.617
		c-0.365-0.411-0.548-0.957-0.548-1.637V54.547z M93.753,54.681c0,0.528,0.136,0.96,0.41,1.298c0.273,0.339,0.632,0.509,1.073,0.509
		s0.797-0.17,1.07-0.509c0.274-0.338,0.41-0.784,0.41-1.339v-0.093c0-0.337-0.063-0.646-0.188-0.926
		c-0.124-0.279-0.299-0.497-0.525-0.65c-0.227-0.153-0.483-0.229-0.774-0.229c-0.434,0-0.789,0.171-1.064,0.511
		c-0.276,0.341-0.412,0.787-0.412,1.339V54.681z"/>
	<path fill="#434343" d="M99.225,56.816v-4.011h-0.729v-0.399h0.729v-0.534c0-0.45,0.114-0.797,0.344-1.039
		c0.231-0.242,0.551-0.362,0.96-0.362c0.186,0,0.357,0.021,0.518,0.069l-0.037,0.403c-0.137-0.032-0.283-0.049-0.444-0.049
		c-0.269,0-0.479,0.084-0.628,0.251c-0.149,0.169-0.224,0.405-0.224,0.713v0.548h1.052v0.399h-1.052v4.011H99.225z"/>
	<path fill="none" stroke="#434343" stroke-width="0.426" stroke-miterlimit="10" d="M99.225,56.816v-4.011h-0.729v-0.399h0.729
		v-0.534c0-0.45,0.114-0.797,0.344-1.039c0.231-0.242,0.551-0.362,0.96-0.362c0.186,0,0.357,0.021,0.518,0.069l-0.037,0.403
		c-0.137-0.032-0.283-0.049-0.444-0.049c-0.269,0-0.479,0.084-0.628,0.251c-0.149,0.169-0.224,0.405-0.224,0.713v0.548h1.052v0.399
		h-1.052v4.011H99.225z"/>
	<path fill="#434343" d="M108.477,55.357c0-0.328-0.116-0.589-0.348-0.78c-0.229-0.191-0.652-0.373-1.267-0.547
		c-0.614-0.173-1.062-0.359-1.345-0.563c-0.4-0.288-0.604-0.667-0.604-1.134c0-0.454,0.188-0.823,0.561-1.106
		s0.852-0.426,1.434-0.426c0.393,0,0.745,0.075,1.057,0.228c0.312,0.153,0.553,0.365,0.724,0.637
		c0.171,0.271,0.257,0.574,0.257,0.908h-0.506c0-0.404-0.138-0.731-0.416-0.978c-0.275-0.247-0.65-0.371-1.115-0.371
		c-0.455,0-0.815,0.103-1.084,0.303c-0.27,0.205-0.404,0.47-0.404,0.795c0,0.302,0.119,0.55,0.363,0.738
		c0.241,0.192,0.629,0.358,1.16,0.505c0.533,0.145,0.936,0.296,1.211,0.453s0.481,0.342,0.619,0.561
		c0.139,0.218,0.208,0.475,0.208,0.771c0,0.466-0.187,0.841-0.56,1.125c-0.373,0.283-0.866,0.424-1.479,0.424
		c-0.417,0-0.802-0.076-1.15-0.225c-0.349-0.149-0.613-0.358-0.795-0.628s-0.271-0.576-0.271-0.924h0.501
		c0,0.416,0.158,0.746,0.469,0.989c0.313,0.243,0.728,0.363,1.247,0.363c0.463,0,0.834-0.103,1.113-0.306
		C108.336,55.965,108.477,55.693,108.477,55.357"/>
	<path fill="none" stroke="#434343" stroke-width="0.426" stroke-miterlimit="10" d="M108.477,55.357
		c0-0.328-0.116-0.589-0.348-0.78c-0.229-0.191-0.652-0.373-1.267-0.547c-0.614-0.173-1.062-0.359-1.345-0.563
		c-0.4-0.288-0.604-0.667-0.604-1.134c0-0.454,0.188-0.823,0.561-1.106s0.852-0.426,1.434-0.426c0.393,0,0.745,0.075,1.057,0.228
		c0.312,0.153,0.553,0.365,0.724,0.637c0.171,0.271,0.257,0.574,0.257,0.908h-0.506c0-0.404-0.138-0.731-0.416-0.978
		c-0.275-0.247-0.65-0.371-1.115-0.371c-0.455,0-0.815,0.103-1.084,0.303c-0.27,0.205-0.404,0.47-0.404,0.795
		c0,0.302,0.119,0.55,0.363,0.738c0.241,0.192,0.629,0.358,1.16,0.505c0.533,0.145,0.936,0.296,1.211,0.453s0.481,0.342,0.619,0.561
		c0.139,0.218,0.208,0.475,0.208,0.771c0,0.466-0.187,0.841-0.56,1.125c-0.373,0.283-0.866,0.424-1.479,0.424
		c-0.417,0-0.802-0.076-1.15-0.225c-0.349-0.149-0.613-0.358-0.795-0.628s-0.271-0.576-0.271-0.924h0.501
		c0,0.416,0.158,0.746,0.469,0.989c0.313,0.243,0.728,0.363,1.247,0.363c0.463,0,0.834-0.103,1.113-0.306
		C108.336,55.965,108.477,55.693,108.477,55.357z"/>
	<path fill="#434343" d="M114.931,54.966c-0.067,0.626-0.292,1.104-0.67,1.436c-0.38,0.332-0.886,0.496-1.515,0.496
		c-0.44,0-0.83-0.109-1.168-0.33c-0.338-0.22-0.6-0.531-0.785-0.935c-0.185-0.403-0.278-0.865-0.28-1.384v-0.77
		c0-0.528,0.091-0.996,0.276-1.403s0.451-0.722,0.797-0.943c0.347-0.222,0.746-0.332,1.197-0.332c0.635,0,1.137,0.171,1.506,0.513
		c0.369,0.343,0.582,0.818,0.642,1.424h-0.505c-0.125-1.01-0.674-1.513-1.643-1.513c-0.539,0-0.967,0.201-1.287,0.604
		c-0.319,0.403-0.479,0.96-0.479,1.669v0.725c0,0.686,0.155,1.233,0.467,1.642c0.313,0.407,0.732,0.61,1.262,0.61
		c0.523,0,0.918-0.126,1.186-0.377s0.43-0.628,0.494-1.131H114.931z"/>
	<path fill="none" stroke="#434343" stroke-width="0.426" stroke-miterlimit="10" d="M114.931,54.966
		c-0.067,0.626-0.292,1.104-0.67,1.436c-0.38,0.332-0.886,0.496-1.515,0.496c-0.44,0-0.83-0.109-1.168-0.33
		c-0.338-0.22-0.6-0.531-0.785-0.935c-0.185-0.403-0.278-0.865-0.28-1.384v-0.77c0-0.528,0.091-0.996,0.276-1.403
		s0.451-0.722,0.797-0.943c0.347-0.222,0.746-0.332,1.197-0.332c0.635,0,1.137,0.171,1.506,0.513
		c0.369,0.343,0.582,0.818,0.642,1.424h-0.505c-0.125-1.01-0.674-1.513-1.643-1.513c-0.539,0-0.967,0.201-1.287,0.604
		c-0.319,0.403-0.479,0.96-0.479,1.669v0.725c0,0.686,0.155,1.233,0.467,1.642c0.313,0.407,0.732,0.61,1.262,0.61
		c0.523,0,0.918-0.126,1.186-0.377s0.43-0.628,0.494-1.131H114.931z"/>
	<polygon fill="#434343" points="117.324,56.393 120.254,56.393 120.254,56.816 116.818,56.816 116.818,50.882 117.324,50.882 	"/>
	<polygon fill="none" stroke="#434343" stroke-width="0.426" stroke-miterlimit="10" points="117.324,56.393 120.254,56.393 
		120.254,56.816 116.818,56.816 116.818,50.882 117.324,50.882 	"/>
	<path fill="#434343" d="M122.385,54.399v2.417h-0.5v-5.935h2.021c0.618,0,1.104,0.157,1.461,0.473
		c0.356,0.316,0.536,0.748,0.536,1.301c0,0.557-0.171,0.986-0.516,1.289c-0.345,0.305-0.842,0.455-1.494,0.455H122.385z
		 M122.385,53.976h1.521c0.487,0,0.858-0.116,1.112-0.347c0.256-0.232,0.384-0.554,0.384-0.968c0-0.411-0.126-0.737-0.382-0.982
		c-0.254-0.242-0.614-0.367-1.081-0.372h-1.554V53.976z"/>
	<path fill="none" stroke="#434343" stroke-width="0.426" stroke-miterlimit="10" d="M122.385,54.399v2.417h-0.5v-5.935h2.021
		c0.618,0,1.104,0.157,1.461,0.473c0.356,0.316,0.536,0.748,0.536,1.301c0,0.557-0.171,0.986-0.516,1.289
		c-0.345,0.305-0.842,0.455-1.494,0.455H122.385z M122.385,53.976h1.521c0.487,0,0.858-0.116,1.112-0.347
		c0.256-0.232,0.384-0.554,0.384-0.968c0-0.411-0.126-0.737-0.382-0.982c-0.254-0.242-0.614-0.367-1.081-0.372h-1.554V53.976z"/>
	<polygon fill="#434343" points="128.196,56.393 131.125,56.393 131.125,56.816 127.691,56.816 127.691,50.882 128.196,50.882 	"/>
	<polygon fill="none" stroke="#434343" stroke-width="0.426" stroke-miterlimit="10" points="128.196,56.393 131.125,56.393 
		131.125,56.816 127.691,56.816 127.691,50.882 128.196,50.882 	"/>
</g>
</svg>
